custom-analysis
version=1
nRows=4
nColumns=98
inDegrees=no

This file contains tibia displacement and acting force.

Units are S.I. units (seconds, meters, Newtons, ...)
Angles are in degrees.

endheader
time	APT	SIT	knee_angle	aACL_R_force	pACL_R_force	aPCL_R_force	pPCL_R_force	aMCL_R_force	mMCL_R_force	pMCL_R_force	aLCL_R_force	mLCL_R_force	pLCL_R_force	aPCL_L_force	pPCL_L_force	aMCL_L_force	aLCL_L_force	aACL_R_length	pACL_R_length	aPCL_R_length	pPCL_R_length	aMCL_R_length	mMCL_R_length	pMCL_R_length	aLCL_R_length	mLCL_R_length	pLCL_R_length	aPCL_L_length	pPCL_L_length	aMCL_L_length	aLCL_L_length	aACL_R_strain	pACL_R_strain	aPCL_R_strain	pPCL_R_strain	aMCL_R_strain	mMCL_R_strain	pMCL_R_strain	aLCL_R_strain	mLCL_R_strain	pLCL_R_strain	aPCL_L_strain	pPCL_L_strain	aMCL_L_strain	aLCL_L_strain	femur_lat_meniscii_r.femur_lat_r.force.X	femur_lat_meniscii_r.femur_lat_r.force.Y	femur_lat_meniscii_r.femur_lat_r.force.Z	femur_lat_meniscii_r.femur_lat_r.torque.X	femur_lat_meniscii_r.femur_lat_r.torque.Y	femur_lat_meniscii_r.femur_lat_r.torque.Z	femur_lat_meniscii_r.meniscus_lat_r.force.X	femur_lat_meniscii_r.meniscus_lat_r.force.Y	femur_lat_meniscii_r.meniscus_lat_r.force.Z	femur_lat_meniscii_r.meniscus_lat_r.torque.X	femur_lat_meniscii_r.meniscus_lat_r.torque.Y	femur_lat_meniscii_r.meniscus_lat_r.torque.Z	femur_med_meniscii_r.femur_med_r.force.X	femur_med_meniscii_r.femur_med_r.force.Y	femur_med_meniscii_r.femur_med_r.force.Z	femur_med_meniscii_r.femur_med_r.torque.X	femur_med_meniscii_r.femur_med_r.torque.Y	femur_med_meniscii_r.femur_med_r.torque.Z	femur_med_meniscii_r.meniscus_med_r.force.X	femur_med_meniscii_r.meniscus_med_r.force.Y	femur_med_meniscii_r.meniscus_med_r.force.Z	femur_med_meniscii_r.meniscus_med_r.torque.X	femur_med_meniscii_r.meniscus_med_r.torque.Y	femur_med_meniscii_r.meniscus_med_r.torque.Z	femur_med_tibia_r.tibia_upper_r.force.X	femur_med_tibia_r.tibia_upper_r.force.Y	femur_med_tibia_r.tibia_upper_r.force.Z	femur_med_tibia_r.tibia_upper_r.torque.X	femur_med_tibia_r.tibia_upper_r.torque.Y	femur_med_tibia_r.tibia_upper_r.torque.Z	femur_med_tibia_r.femur_med_r.force.X	femur_med_tibia_r.femur_med_r.force.Y	femur_med_tibia_r.femur_med_r.force.Z	femur_med_tibia_r.femur_med_r.torque.X	femur_med_tibia_r.femur_med_r.torque.Y	femur_med_tibia_r.femur_med_r.torque.Z	femur_lat_tibia_r.tibia_upper_r.force.X	femur_lat_tibia_r.tibia_upper_r.force.Y	femur_lat_tibia_r.tibia_upper_r.force.Z	femur_lat_tibia_r.tibia_upper_r.torque.X	femur_lat_tibia_r.tibia_upper_r.torque.Y	femur_lat_tibia_r.tibia_upper_r.torque.Z	femur_lat_tibia_r.femur_lat_r.force.X	femur_lat_tibia_r.femur_lat_r.force.Y	femur_lat_tibia_r.femur_lat_r.force.Z	femur_lat_tibia_r.femur_lat_r.torque.X	femur_lat_tibia_r.femur_lat_r.torque.Y	femur_lat_tibia_r.femur_lat_r.torque.Z	femur_lat_meniscii_force_r	femur_med_meniscii_force_r	femur_lat_tibia_force_r	femur_med_tibia_force_r
      0.21018367	      0.01346442	      0.02627056	     81.71517493	     -2.02286104	      0.00000000	    978.30856458	    631.91063029	     28.52505786	     15.86070681	      0.00000000	      0.00000000	      0.00000000	      0.00000000	      0.00000000	      0.00000000	      0.00000001	      0.00000000	      0.03103250	      0.02445713	      0.03721108	      0.03399286	      0.06150220	      0.05994015	      0.05659507	      0.05011742	      0.04467515	      0.03968536	      0.01525851	      0.01651186	      0.06550154	      0.04489616	      0.00087065	     -0.02400655	      0.19667853	      0.13734893	      0.02457562	      0.00245259	     -0.03631882	     -0.10468161	     -0.20674258	     -0.24181663	      0.00000079	     -0.32847694	      0.00000060	     -0.00000086	    132.47747687	     95.41859566	     12.62858231	     -7.25337159	      3.12353673	     52.39409362	   -132.47747687	    -95.41859566	    -12.62858231	      2.52520123	     -3.81890216	      2.45979691	      0.01067038	     -0.00153401	     -0.00781236	      0.00309149	     -0.00017530	      0.00425673	     -0.01067038	      0.00153401	      0.00781236	     -0.00001368	      0.00035923	     -0.00008907	   -846.58515616	   -362.77449725	    299.86239179	     -7.91219735	     20.69699583	      2.86690191	    846.58515616	    362.77449725	   -299.86239179	    127.16904333	    -14.79891618	    340.95997095	   -287.80760625	   -135.35753564	    -82.11849179	      4.38422461	    -10.10377361	      1.29471689	    287.80760625	    135.35753564	     82.11849179	    -36.41922561	      7.10709570	    115.92053733	    163.75124844	      0.01331327	    328.47880809	    968.62232913
      0.21121839	      0.01340900	      0.02646611	     82.27802707	     -2.02798811	      0.00000000	    982.75541774	    625.24592841	     21.45639102	      8.02213616	      0.00000000	      0.00000000	      0.00000000	      0.00000000	      0.00000000	      0.00000000	      0.00000001	      0.00000000	      0.03102606	      0.02448338	      0.03726523	      0.03403863	      0.06153102	      0.05995635	      0.05662090	      0.05006899	      0.04462027	      0.03964255	      0.01525851	      0.01651186	      0.06550154	      0.04489616	      0.00066298	     -0.02295901	      0.19842012	      0.13888035	      0.02505570	      0.00272351	     -0.03587903	     -0.10554672	     -0.20771693	     -0.24263467	      0.00000079	     -0.32847694	      0.00000060	     -0.00000086	    152.73282237	     98.88673206	      8.96963038	     -5.85816280	      3.54573602	     60.52038045	   -152.73282237	    -98.88673206	     -8.96963038	      2.58305315	     -4.19970787	      2.45722905	      0.00035365	     -0.00001870	     -0.00023344	      0.00009265	     -0.00000536	      0.00014080	     -0.00035365	      0.00001870	      0.00023344	     -0.00000057	      0.00001078	     -0.00000173	   -845.08279985	   -340.34146284	    303.03088218	     -7.58932347	     20.78363615	      2.35663216	    845.08279985	    340.34146284	   -303.03088218	    128.10289636	    -14.78567513	    340.46421062	   -285.94706150	   -125.17892590	    -77.72018769	      4.05588468	     -9.89625851	      1.02804365	    285.94706150	    125.17892590	     77.72018769	    -34.39523827	      7.01051076	    115.24398399	    182.17122461	      0.00042416	    321.67672133	    960.11716238
      0.21148396	      0.01339605	      0.02651765	     82.42272034	     -2.73605917	      0.00000000	    984.49327252	    625.94356500	     20.16394991	      6.87303750	      0.00000000	      0.00000000	      0.00000000	      0.00000000	      0.00000000	      0.00000000	      0.00000001	      0.00000000	      0.03102443	      0.02448979	      0.03727714	      0.03404833	      0.06153707	      0.05995904	      0.05662604	      0.05005516	      0.04460481	      0.03963013	      0.01525851	      0.01651186	      0.06550154	      0.04489616	      0.00061048	     -0.02270318	      0.19880311	      0.13920509	      0.02515657	      0.00276851	     -0.03579138	     -0.10579377	     -0.20799157	     -0.24287186	      0.00000079	     -0.32847694	      0.00000060	     -0.00000086	    154.44428296	    100.65762645	      9.06826616	     -5.93925986	      3.58401045	     61.18373136	   -154.44428296	   -100.65762645	     -9.06826616	      2.63011289	     -4.24643041	      2.52816701	      0.00014655	     -0.00000722	     -0.00009623	      0.00003820	     -0.00000222	      0.00005834	     -0.00014655	      0.00000722	      0.00009623	     -0.00000023	      0.00000445	     -0.00000068	   -849.10090131	   -341.46266416	    304.10149265	     -7.58229796	     20.86620587	      2.43629615	    849.10090131	    341.46266416	   -304.10149265	    128.53920145	    -14.84730908	    342.05344441	   -286.72904882	   -125.60996114	    -77.86749938	      4.06205488	     -9.92495570	      1.06486123	    286.72904882	    125.60996114	     77.86749938	    -34.46164642	      7.02937751	    115.54552829	    184.57309596	      0.00017547	    322.57519625	    964.38934536
      0.21183985	      0.01337855	      0.02658714	     82.61660936	     -2.88667738	      0.00000000	    986.65306233	    626.37370455	     19.32379823	      5.99185694	      0.00000000	      0.00000000	      0.00000000	      0.00000000	      0.00000000	      0.00000000	      0.00000001	      0.00000000	      0.03102187	      0.02449801	      0.03729262	      0.03406089	      0.06154464	      0.05996214	      0.05663251	      0.05003622	      0.04458372	      0.03961322	      0.01525851	      0.01651186	      0.06550154	      0.04489616	      0.00052810	     -0.02237504	      0.19930080	      0.13962507	      0.02528268	      0.00282036	     -0.03568119	     -0.10613215	     -0.20836594	     -0.24319491	      0.00000079	     -0.32847694	      0.00000060	     -0.00000086	    156.48460591	    101.29253223	      9.74833802	     -6.22943767	      3.63468330	     61.99088736	   -156.48460591	   -101.29253223	     -9.74833802	      2.65368902	     -4.32273930	      2.55801860	      0.00000000	      0.00000000	      0.00000000	      0.00000000	      0.00000000	      0.00000000	      0.00000000	      0.00000000	      0.00000000	      0.00000000	      0.00000000	      0.00000000	   -855.92591426	   -340.80801819	    308.30441059	     -7.58821329	     21.09902398	      2.44318678	    855.92591426	    340.80801819	   -308.30441059	    130.22648330	    -14.98011318	    344.79364658	   -288.42350892	   -125.25744597	    -79.00939725	      4.06054902	    -10.01720741	      1.06718385	    288.42350892	    125.25744597	     79.00939725	    -34.91629524	      7.08088941	    116.22669018	    186.66183077	      0.00000000	    324.22219715	    971.49929776
